<svg width="24" height="24" viewBox="0 0 24 24" fill="none" xmlns="http://www.w3.org/2000/svg">
<rect width="24" height="24" rx="12" fill="#252628"/>
<path fill-rule="evenodd" clip-rule="evenodd" d="M5.90002 9.19314C7.16849 7.93735 9.16161 6.66666 12 6.66666C14.8384 6.66666 16.8315 7.93735 18.1 9.19314C18.7322 9.81903 19.188 10.4439 19.4866 10.9135C19.6363 11.1488 19.7474 11.3466 19.8223 11.4882C19.8598 11.559 19.8883 11.6159 19.908 11.6565C19.9179 11.6768 19.9256 11.6931 19.9312 11.705L19.938 11.7196L19.9401 11.7244L19.9409 11.7261L19.9412 11.7269C19.9414 11.7272 19.9415 11.7275 19.3333 12.0005C19.9415 12.2736 19.9414 12.2739 19.9412 12.2742L19.9409 12.2749L19.9401 12.2767L19.9379 12.2814L19.9312 12.296C19.9256 12.308 19.9179 12.3242 19.908 12.3445C19.8883 12.3851 19.8598 12.442 19.8223 12.5128C19.7474 12.6544 19.6363 12.8521 19.4866 13.0874C19.1879 13.5569 18.7321 14.1816 18.0999 14.8074C16.8314 16.0629 14.8383 17.3333 12 17.3333C9.16166 17.3333 7.16856 16.0629 5.90007 14.8074C5.26785 14.1816 4.81206 13.5569 4.51339 13.0874C4.36373 12.8521 4.25259 12.6544 4.17769 12.5128C4.14021 12.442 4.11173 12.3851 4.09198 12.3445C4.0821 12.3242 4.07439 12.308 4.06882 12.296L4.06207 12.2814L4.05989 12.2767L4.05909 12.2749L4.05877 12.2742C4.05863 12.2739 4.0585 12.2736 4.66667 12.0005C4.05848 11.7275 4.05861 11.7272 4.05875 11.7269L4.05907 11.7261L4.05987 11.7244L4.06205 11.7196L4.0688 11.705C4.07437 11.6931 4.08207 11.6768 4.09195 11.6565C4.11171 11.6159 4.14018 11.559 4.17766 11.4882C4.25256 11.3466 4.3637 11.1488 4.51336 10.9135C4.81202 10.4439 5.26781 9.81903 5.90002 9.19314ZM4.66667 12.0005L4.05848 11.7275C3.9805 11.9012 3.98051 12.0999 4.0585 12.2736L4.66667 12.0005ZM5.41664 12.0005C5.47322 12.1021 5.54691 12.228 5.6384 12.3718C5.89627 12.7772 6.29167 13.319 6.83803 13.8598C7.92668 14.9373 9.60024 16 12 16C14.3998 16 16.0733 14.9373 17.162 13.8598C17.7083 13.319 18.1037 12.7772 18.3616 12.3718C18.4531 12.228 18.5268 12.1021 18.5834 12.0005C18.5268 11.8988 18.4531 11.7729 18.3616 11.629C18.1037 11.2235 17.7083 10.6816 17.1619 10.1407C16.0733 9.06289 14.3997 7.99999 12 7.99999C9.60029 7.99999 7.92675 9.06289 6.83808 10.1407C6.29172 10.6816 5.89631 11.2235 5.63843 11.629C5.54693 11.7729 5.47322 11.8988 5.41664 12.0005ZM19.3333 12.0005L19.9415 12.2736C20.0195 12.0999 20.0195 11.9012 19.9415 11.7275L19.3333 12.0005ZM5.27424 12.2749C5.27415 12.2751 5.27419 12.275 5.27436 12.2746L5.27424 12.2749ZM12 10.6667C11.2636 10.6667 10.6667 11.2636 10.6667 12C10.6667 12.7364 11.2636 13.3333 12 13.3333C12.7364 13.3333 13.3333 12.7364 13.3333 12C13.3333 11.2636 12.7364 10.6667 12 10.6667ZM9.33333 12C9.33333 10.5272 10.5272 9.33332 12 9.33332C13.4728 9.33332 14.6667 10.5272 14.6667 12C14.6667 13.4727 13.4728 14.6667 12 14.6667C10.5272 14.6667 9.33333 13.4727 9.33333 12Z" fill="white"/>
</svg>
